<svg xmlns="http://www.w3.org/2000/svg" fill="none" viewBox="0 0 129 24">
    <g fill="currentColor" clip-path="url(#a)">
        <path d="M33.6409 5.0498 26.7632 19.134h3.0672l1.2827-2.7367h8.2211l1.2827 2.7367h3.0875L36.8267 5.0498H33.638h.0029Zm-1.3637 8.8922 2.9472-6.29766 2.9674 6.29766h-5.9146Zm25.2838 3.0182c-1.3435 0-1.5647-.624-1.5647-1.811v-3.8221h4.211V8.87186h-4.211V5.91455h-2.7476v2.95731h-.9429c-3.0874 0-4.7519 1.75004-5.394 3.70174l.0608-3.70174H44.225V19.1325h2.7476v-.5427c0-2.5351 1.2827-7.2627 5.4142-7.2627h.8619v4.1646c0 2.3333 1.1424 3.8425 3.9305 3.8425.9428 0 2.0853-.0813 3.3289-.5427l-.201-2.3334c-1.0224.3816-2.1055.5035-2.7476.5035l.0015-.0014Zm64.422-5.1092c0-.6037.943-.8446 1.925-.8446 1.564 0 2.746.6037 3.569 1.3074l1.263-1.972c-.762-.68343-2.246-1.67017-4.732-1.67017-3.008 0-4.813 1.38867-4.813 3.39987 0 3.9237 7.018 2.5147 7.018 4.0036 0 .6036-.902.9257-2.286.9257-1.604 0-3.008-.6036-3.809-1.3074l-1.262 1.972c.762.6835 2.286 1.6702 5.012 1.6702 2.906 0 5.132-1.1463 5.132-3.4811 0-3.9832-7.017-2.5554-7.017-4.0035Z"/>
        <path d="M118.915 8.87378h-3.208l-4.892 5.35162V5.05017h-2.768V19.1344h2.768V17.544l2.085-2.2332 2.927 3.8236h3.348l-4.49-5.7347 4.23-4.52592Zm-16.701 2.21282c1.544 0 2.567.6037 3.347 1.3481l1.303-2.0925c-.782-.68346-2.065-1.6702-4.652-1.6702-3.4083 0-5.7538 2.1331-5.7538 5.3313 0 3.1982 2.3455 5.3313 5.7538 5.3313 2.606 0 3.87-.9853 4.652-1.6702l-1.303-2.0925c-.782.7444-1.804 1.3481-3.347 1.3481-1.744 0-2.9475-1.0462-2.9475-2.9167 0-1.8704 1.2035-2.9167 2.9475-2.9167Zm-25.8857.8446c1.2032-.4222 2.1648-1.409 2.1648-3.13868 0-2.39429-1.5834-3.74235-4.3513-3.74235h-8.8415V19.1344h9.4633c2.7072 0 4.4309-1.4685 4.4309-3.944 0-1.6499-1.0629-2.8166-2.8676-3.2592h.0014ZM68.087 7.50541h5.5342c1.4635 0 2.0651.5427 2.0651 1.62956 0 1.20733-.6016 1.71083-2.0651 1.71083H68.087V7.50541Zm6.2558 9.17379H68.087V13.259h6.2558c1.423 0 2.0043.7038 2.0043 1.6295 0 1.0666-.5611 1.7907-2.0043 1.7907ZM89.9825 8.672c-3.4287 0-5.6543 2.1331-5.6543 5.3313 0 3.1982 2.2256 5.3313 5.6543 5.3313s5.6138-2.1331 5.6138-5.3313c0-3.1982-2.2256-5.3313-5.6138-5.3313Zm0 8.2494c-1.744 0-2.8474-1.0462-2.8474-2.9166 0-1.8705 1.1034-2.9167 2.8474-2.9167s2.8069 1.0462 2.8069 2.9167c0 1.8704-1.1034 2.9166-2.8069 2.9166ZM83.1453 5.05017h-2.7476V19.1344h2.7476V5.05017ZM.329662 15.9958H.325286l.018961.0044s-.004375-.0074-.007293-.0103l-.008751.0059h.001459ZM23.2808 9.21334c-.4454-.4034-1.1048-.46289-1.6385-.18864l-.026.01161c-.107.05659-.1894.11028-.2661.16397-.0188.01306-.0376.02612-.0549.03918l-.0506.03918c-.0174.01306-.0318.02612-.0478.03773-.0144.01306-.0303.02612-.0448.03773-.1142.09867-.2068.19154-.2892.28006-.0911.09867-.1692.19154-.2415.28151-.0723.09003-.1374.17853-.1996.26553-.1243.1727-.2328.3396-.3369.505-.2054.3294-.3876.6501-.5611.9693-.1735.3178-.3369.6342-.496.9476-.1591.3134-.3138.6254-.4671.9359-.149.3033-.2994.6081-.4483.9113-.0116-.0493-.0246-.0986-.0362-.148l-.0723-.2975c-.0477-.1988-.094-.3976-.1402-.5993-.1851-.8024-.3616-1.615-.538-2.432-.1764-.8169-.3528-1.63827-.535-2.46103-.1823-.82421-.3702-1.64988-.5741-2.48135-.1114-.45274-.2271-.90838-.3529-1.36547-.0318-.11463-.0636-.22927-.0954-.3439l-.0521-.18139c-.0318-.11028-.0636-.21911-.0969-.32794-.1316-.43678-.2748-.8692-.4309-1.28131-.0781-.20605-.1605-.4063-.2473-.59785-.0868-.19154-.1779-.37147-.2719-.5398-.0246-.04063-.0477-.08271-.0723-.12189-.0116-.02031-.0246-.04063-.0361-.05949l-.0376-.05805c-.0492-.07545-.0998-.14801-.1504-.216212-.0506-.068201-.1027-.132048-.1548-.190091-.052-.059495-.1055-.114636-.159-.165424-.0535-.050788-.1071-.097222-.1606-.140755-.0535-.043532-.1084-.082711-.1634-.118989-.1099-.072554-.2198-.132048-.3355-.179934-.1157-.0478852-.2342-.0870644-.3673-.1131839-.0665-.0130597-.1359-.02466838-.2111-.03047271-.0376-.00435325-.0767-.00435325-.1157-.00580433h-.0593c-.0202 0-.0405 0-.0607.00145108l-.081.00580433c-.026.00290217-.0535.00580433-.0781.00870649-.0506.00725544-.0969.01596194-.1417.02611944-.0882.0203152-.1663.0449836-.2415.0740046-.0376.014511-.0738.030473-.1099.046435-.0362.017413-.0709.034826-.1056.05369-.0694.037728-.1388.081261-.2053.132049-.136.098673-.269.223466-.3963.383085-.0636.07981-.1272.166875-.188.262646-.0607.095775-.12.201705-.1764.313435l-.0202.04063c-.0073.01306-.013.02612-.0203.04063l-.039.08272c-.013.02757-.026.05659-.0376.08561l-.0188.04353-.0188.04498c-.0492.11754-.0969.24088-.1432.36713l-.0332.09577-.0333.09722c-.0217.06385-.0434.1306-.0651.19735-.0419.1335-.0824.267-.1215.40485-.0795.2728-.1518.55286-.2212.83437-.0347.14076-.068.28296-.10122.42372-.01591.0711-.03326.14221-.04917.21331-.01012.04788-.02169.09432-.03181.1422-.1316.5906-.24873 1.17538-.36153 1.75872-.2227 1.16667-.41937 2.32753-.60881 3.48695-.188 1.15942-.36731 2.31592-.54374 3.46952-.1128.7357-.22415 1.47-.33694 2.2057l-.04049-.1712c-.01591-.0668-.03326-.135-.04917-.2032-.03326-.1364-.06797-.2728-.10557-.4121-.07519-.2786-.15762-.5616-.26608-.8677-.01446-.0392-.02748-.077-.04338-.1161l-.04628-.1205-.05206-.1248-.02892-.0653-.01446-.0319-.00723-.0159s-.00434-.0102-.00723-.016l-.03326-.0682-.01591-.0348-.00868-.0174-.01012-.0189-.0376-.0726c-.00723-.0116-.01301-.0232-.02024-.0362l-.0217-.0392-.04483-.0784-.00289-.0043-.00289-.0058-.00723-.0102-.01302-.0218-.02747-.042-.02748-.0421s-.01012-.0145-.01591-.0232l-.01735-.0233c-.02314-.0319-.04483-.0624-.06797-.0928-.02169-.0276-.04338-.0552-.06652-.0798l-.01735-.0204-.02169-.0232c-.01446-.0145-.02892-.0304-.04338-.045l-.0217-.0217-.01156-.0102-.01302-.013c-.0188-.016-.0376-.0334-.0564-.0494l-.02892-.0232-.01446-.0116-.00723-.0058-.00868-.0073c-.02314-.0174-.04772-.0348-.07086-.0508-.01157-.0087-.02458-.0159-.03615-.0246l-.0188-.0116-.01012-.0058-.01157-.0073c-.02892-.0174-.05929-.0334-.08966-.0493-.01446-.0073-.03037-.016-.04483-.0232l-.02314-.0116-.02603-.0117c-.0347-.0145-.07086-.029-.10701-.042-.01735-.0058-.03615-.0131-.0535-.0189-.0188-.0058-.03905-.0116-.05929-.0174-.03905-.0102-.07954-.0203-.12003-.0276-.03905-.0072-.08243-.0145-.12292-.0189-.04194-.0043-.08388-.0072-.12581-.0087-.04628 0-.094 0-.14027.0015-.02314 0-.04773.0029-.06942.0058-.02169.0029-.04338.0044-.06507.0087-.04339.0058-.08532.0145-.12871.0232-.0376.0087-.07519.0189-.11279.0305-.0188.0058-.0376.0116-.05495.0174-.01013.0029-.01736.0058-.02459.0087l-.02314.0087c-.03181.0116-.06218.0247-.09255.0392l-.02314.0102-.01879.0087c-.01302.0058-.02603.013-.0376.0188-.02459.0131-.05062.0276-.0752.0407-.02025.0116-.04049.0246-.06074.0377l-.03037.0203c-.01012.0073-.02024.0145-.02747.0189-.01591.0116-.03326.0232-.04917.0362l-.02458.0189-.01157.0087-.01012.0087c-.01302.0102-.02603.0218-.03905.0334l-.0188.0174s-.01301.0116-.0188.016c-.02169.0203-.04338.0406-.06363.0609-.07519.0755-.12725.1393-.17208.1959l-.03037.0406-.02748.0378-.01301.0188-.01157.0174-.02314.0349c-.05784.0885-.09978.1625-.13593.2292-.03616.0682-.06652.1292-.094.1872-.05495.1161-.09978.2206-.14172.3207-.04194.1001-.07954.1959-.11424.2888-.07086.1872-.13594.3642-.19812.5383-.06073.1684-.12147.3367-.18365.5065l-.0376.103-.03326-.0363-.05496-.0609c-.03615-.0407-.07375-.0827-.1099-.1234-.07375-.0827-.14606-.1683-.21692-.2525-.0723-.0856-.14316-.1712-.21257-.2554l-.04339-.0551-.02313-.029s-.0564-.0624-.05785-.0653h-.00289c-.7057-.7517-2.088182-.6878-2.5451514.4934-.1851017.4803-.0636287 1.0288.2530684 1.4336l.005784.0102.04483.0566.043383.0537c.083874.103.166302.2031.250176.3018.083875.0987.169195.1988.255961.296.043384.0493.086769.0987.130149.1466l.06652.074c.03037.0319.05929.0653.08966.0972.04194.0435.08243.0885.12437.132l.06218.0653.06218.0653.12581.1292c.04339.0421.08532.0842.12871.1262.04194.0421.08676.0827.1287.1234l.06508.0609.03181.0305.03326.029c.04338.0392.08821.0769.1316.1161.02169.0203.04483.0377.06652.0551l.06652.0537c.02169.0174.04483.0363.06652.0537.02314.0174.04483.0334.06797.0508l.06796.0508.03326.0247.01736.013s.01157.0073.01735.0116l.13738.09c.01157.0073.02314.0145.03471.0218l.0347.0188.06797.0392.06797.0392c.02314.0116.04627.0218.06797.0334l.06796.0319.03471.016c.01157.0043.02314.0087.03471.0145.04482.0188.0911.0377.13593.0551.04483.0131.08966.0261.13449.0392.17932.0435.35429.0595.53217.0479.03904-.0029.08242-.0073.12581-.0131.07375-.0101.14895-.0261.21981-.045.0347-.0101.06941-.0203.10267-.0319.01735-.0058.03326-.0116.04917-.0174.0159-.0058.03326-.0131.04916-.0189.06363-.0261.12582-.0551.18511-.0885.05929-.0334.11713-.0682.17353-.1074.11279-.0783.22125-.1712.32393-.2786.05206-.0537.10122-.1103.15039-.1727.04917-.0609.09689-.1247.14172-.193.02603-.0377.05061-.0798.0752-.1204.00289.0131.00578.0247.00867.0377.10702.5166.21403 1.0361.32538 1.5411.01446.0624.02747.1262.04194.1886l.04338.1872.02169.0929.01012.0464.01157.045c.01446.061.02892.1219.04339.1828l.02169.0915c.00723.029.01446.0595.02313.0885l.04483.1785c.00434.0145.00723.029.01157.0435l.01157.0435c.00723.029.01591.0581.02314.0856l.02314.0857c.00723.029.0159.058.02314.0841.0159.0552.03181.1103.04772.1654.00723.0276.0159.0552.02313.0827l.02459.0784c.01591.0522.03326.1045.04917.1582.00867.0275.0159.0508.02458.0754l.02458.074c.00868.0247.01736.0494.02459.074.00867.0247.01735.0508.02458.0726.01735.0464.03471.0929.05206.1378l.02603.0697.02603.0638.05206.1277c.00868.0218.01735.0407.02603.061l.02603.058c.00868.0189.01735.0392.02603.0581l.01302.029c.00433.0102.00867.0174.01301.0276.01735.0348.03615.0711.05351.1059l.01301.0261c.00434.0087.00868.0189.01302.0261l.02747.0479c.01736.0319.03616.0639.05351.0958l.0535.0856.02748.0421c.00434.0072.00868.0145.01302.0203l.01301.0189c.01735.0261.03615.0522.05351.0783l.01012.0131.01012.0116.0188.0247.03905.0478c.01301.0175.02603.0305.03904.0436l.03905.0421c.05061.0537.10267.0986.15184.1393l.0188.0159.0188.0131.03759.0261c.01302.0087.02459.0174.0376.0261l.0376.0247c.01302.0087.02459.016.0376.0218l.0376.0203s.01301.0072.0188.0101l.0188.0087.0376.0175.03615.0174.0188.0087s.01157.0058.0188.0087l.0376.0145.0188.0072.0188.0058.03759.0131c.01302.0044.02459.0073.0376.0116.02459.0073.05062.0145.07665.0203.05206.0131.10556.0247.16196.0305.0564.0073.11714.0116.18366.0131h.06941c.06941-.0029.10701-.0058.14316-.0102.03471-.0043.06508-.0087.09256-.0131.05639-.0101.10556-.0217.15473-.0362.04917-.016.09689-.0291.14461-.0494.02458-.0087.04772-.0203.07231-.0304.02458-.0116.04772-.0247.0723-.0363.04917-.0232.09834-.0537.14895-.0885.01301-.0087.02603-.0174.0376-.0262.01301-.0087.02603-.0188.03904-.0275.01302-.0102.02603-.0203.03905-.0305.01301-.0116.02603-.0232.03904-.0348.01302-.0116.02603-.0232.04049-.0348.01302-.0131.02748-.0247.04049-.0392.01302-.0145.02748-.0276.0405-.0421l.02024-.0218c.00723-.0072.01302-.0145.02025-.0232.01301-.016.02747-.0319.04049-.0493l.02024-.0261c.00723-.0088.01447-.0175.02025-.0262.01446-.0188.02748-.0377.04194-.058.01446-.0203.02747-.0406.04193-.0624.05496-.0856.10991-.1886.16197-.3076.05206-.119.10267-.2569.15039-.4092l.01736-.0581.00867-.029.00868-.0305c.01157-.0406.02314-.0812.03471-.1219l.03325-.1262c.0116-.0421.0217-.0871.0318-.1306.0434-.1756.0839-.3599.1244-.5485.0795-.3788.1547-.7749.227-1.1798.0362-.2017.0709-.4063.1056-.6109.0347-.2046.0694-.4106.1027-.6181.094-.5703.1836-1.1464.2733-1.7225.0636-.4179.1287-.8343.1923-1.2522.0882-.5761.1764-1.1522.2632-1.7283.1764-1.1507.3528-2.2985.5394-3.4419.1865-1.14207.3803-2.28117.5943-3.40431.1071-.56157.2198-1.12023.3428-1.66729l.0159-.07111c.0144.04934.0275.09868.0419.14801.0304.10448.0593.21041.0882.31634.1157.42372.2256.85469.3326 1.28856.1953.79519.3789 1.602.5582 2.4117.1793.81115.3543 1.6267.5307 2.4466.1779.8198.3558 1.6426.5467 2.4726.0477.2075.0969.415.146.624l.0752.3134c.0145.0566.0275.1132.042.1698.0246.0972.0491.1944.0737.2916.1041.4049.214.8083.3341 1.2001.0607.1959.1229.3874.1894.5732.0665.1857.1374.3642.2126.5311.0535.1175.1084.2278.1677.3308.0579.103.1186.1974.1808.283.0622.0856.1273.1625.1923.2321.0651.0697.1316.1292.1996.1829.0665.0537.1345.1001.2039.1407.0694.0407.1388.0769.2111.1074s.1475.0566.2314.0798c.0419.0102.0868.0218.1345.029.0246.0044.0492.0087.0752.0117.026.0029.0535.0072.0795.0072.0304.0029.0608.0044.0897.0058.0289 0 .0549 0 .081-.0014.0477-.0029.0969-.0058.1446-.0087.0231 0 .0448-.0044.0679-.0073l.0333-.0058.0333-.0058c.0433-.0087.0867-.0189.1287-.0305.0853-.0247.1706-.0551.2574-.0943.0867-.0406.175-.0885.2632-.1495.0896-.0609.1793-.132.2704-.2176.0896-.0856.1808-.1843.269-.2946.1778-.2206.3499-.489.5148-.772.0824-.1407.1634-.2873.2444-.4353.0795-.148.159-.2975.2371-.4498.1562-.3033.3095-.6095.4613-.9171.1533-.3105.3066-.6211.4585-.9331.1504-.3047.2993-.6065.4511-.904.1504-.2975.3023-.5891.457-.8721.1533-.2829.3109-.5587.4671-.8097.0781-.1248.1576-.2438.2328-.3497.0376-.0522.0752-.1016.1085-.1451.0347-.0435.0665-.0813.0925-.1088.0102-.0102.0174-.0175.0246-.0247.7939-.5717 1.008-1.71522.1996-2.44656v.0087Z"/>
    </g>
    <defs>
        <clipPath id="a">
            <path fill="currentColor" d="M0 0h129v24H0z"/>
        </clipPath>
    </defs>
</svg>
